<mxfile host="app.diagrams.net" modified="2023-04-11T15:00:22.588Z" agent="Mozilla/5.0 (Windows NT 10.0; Win64; x64) AppleWebKit/537.36 (KHTML, like Gecko) Chrome/112.0.0.0 Safari/537.36" version="21.1.5" etag="4EOVFKblUw8UD4_tu5JG" type="github">
  <diagram name="페이지-1" id="LVbeBz3lkzqhl6SUiHem">
    <mxGraphModel>
      <root>
        <mxCell id="0" />
        <mxCell id="1" parent="0" />
      </root>
    </mxGraphModel>
  </diagram>
</mxfile>
